<?xml version="1.0" encoding="iso-8859-1"?>
<!-- Uploaded to: SVG Repo, www.svgrepo.com, Generator: SVG Repo Mixer Tools -->
<svg height="800px" width="800px" version="1.1" id="Layer_1" xmlns="http://www.w3.org/2000/svg" xmlns:xlink="http://www.w3.org/1999/xlink" 
	 viewBox="0 0 511.998 511.998" xml:space="preserve">
<path style="fill:#FEA921;" d="M49.727,339.033l-14.563-24.776c-4.941-8.406-1.884-19.235,6.723-23.816L438.008,70.186
	c8.108-4.316,18.177-1.473,22.831,6.445l3.567,6.068c4.654,7.919,2.24,18.098-5.475,23.083L73.806,344.744
	C65.616,350.035,54.668,347.439,49.727,339.033z"/>
<path style="fill:#E58200;" d="M464.406,82.699l-3.567-6.068c-2.938-4.998-8.034-7.967-13.431-8.397
	c1.845,6.999-0.899,14.647-7.264,18.76L55.017,325.956c-3.538,2.285-7.587,3.093-11.448,2.603l6.157,10.475
	c4.941,8.406,15.889,11.003,24.079,5.711l385.126-238.962C466.646,100.797,469.06,90.618,464.406,82.699z"/>
<path style="fill:#FED9A8;" d="M385.12,361.623l-3.702-34.127l9.19-84.608c0.936-8.615-0.284-17.372-3.545-25.459l-16.331-40.49
	c-7.94-19.685-29.947-29.329-49.061-21.5l-1.62,0.664l-6.581-16.016c-5.992-14.582-22.672-21.544-37.253-15.547l0,0
	c-14.572,5.994-21.53,22.664-15.541,37.239l6.557,15.959l-0.018,0.007l-5.895-14.346c-5.992-14.582-22.672-21.544-37.253-15.547l0,0
	c-13.928,5.729-20.89,21.207-16.252,35.29c-6.506-13.513-22.504-19.771-36.554-13.992l0,0c-14.572,5.994-21.53,22.664-15.541,37.239
	l3.579,8.709c-6.987-11.852-21.799-17.082-34.895-11.695l0,0c-14.356,5.904-21.209,22.327-15.31,36.686l18.257,44.433
	c2.754,6.703,7.802,11.771,13.862,14.67l24.85,58.554c4.957,11.898,13.153,22.143,23.6,29.506l55.979,31.602l12.536,72.493
	c1.27,7.348,7.646,12.715,15.102,12.715h175.263c12.123,0,19.447-13.408,12.896-23.609L385.12,361.623z"/>
<g>
	<path style="fill:#F4C08E;" d="M233.807,163.399l12.807,31.169c2.277-6.115,6.928-11.258,13.348-13.889l7.241-2.966l-5.882-14.315
		c-5.992-14.582-22.672-21.544-37.253-15.547l0,0c-1.003,0.413-1.967,0.881-2.897,1.391c-0.002,0.001-0.004,0.002-0.006,0.003
		C226.677,152.274,231.232,157.13,233.807,163.399z"/>
	<path style="fill:#F4C08E;" d="M313.47,140.086c-5.992-14.582-22.672-21.544-37.253-15.547l0,0
		c-0.982,0.404-1.926,0.861-2.838,1.358c-0.177,0.098-0.352,0.198-0.527,0.3c-0.157,0.09-0.311,0.183-0.466,0.276
		c-6.204,3.794-10.557,9.723-12.495,16.412c13.777-3.92,28.599,3.043,34.172,16.608l2.539,6.18l23.435-9.6L313.47,140.086z"/>
	<path style="fill:#F4C08E;" d="M179.361,263.152l-18.257-44.433c-5.902-14.365-22.335-21.223-36.698-15.315l0,0
		c-8.328,3.425-14.125,10.393-16.377,18.442c13.542-3.797,28.083,3.061,33.56,16.39l18.257,44.433
		c2.477,6.028,2.698,12.418,1.068,18.243c1.053-0.295,2.102-0.648,3.138-1.074l0,0C178.406,293.933,185.26,277.51,179.361,263.152z"
		/>
	<path style="fill:#F4C08E;" d="M226.449,228.346l-17.934-43.647c-5.992-14.582-22.672-21.544-37.253-15.547l0,0
		c-8.353,3.436-14.197,10.381-16.541,18.426c13.828-4.034,28.757,2.934,34.356,16.559l17.934,43.647
		c2.556,6.221,2.747,12.822,1,18.813c0.972-0.284,1.939-0.618,2.897-1.012l0,0C225.481,259.591,232.438,242.92,226.449,228.346z"/>
	<path style="fill:#F4C08E;" d="M385.12,361.623l-3.702-34.127l9.19-84.608c0.936-8.615-0.284-17.372-3.545-25.459l-16.331-40.49
		c-7.8-19.339-29.176-28.974-48.048-21.885c9.769,3.622,18.109,11.298,22.379,21.885l16.331,40.49
		c3.261,8.087,4.481,16.844,3.545,25.459l-7.878,118.735l91.482,142.436l0,0c12.123,0,19.447-13.408,12.896-23.609L385.12,361.623z"
		/>
	<path style="fill:#F4C08E;" d="M331.083,236.993c-0.8-1.923-1.94-3.93-3.328-5.915c-2.204-2.657-5.013-4.756-8.266-6.105
		c-5.08-2.109-10.633-2.135-15.65-0.078c-0.038,0.016-0.076,0.032-0.114,0.048l-21.881,9.123c-0.044,0.019-0.09,0.037-0.133,0.055
		c-2.477,1.015-5.032,1.574-7.578,1.727c-2.894,3.301-6.423,5.838-10.493,7.538l-0.182,0.075
		c-13.548,5.553-29.014-0.11-35.949-12.646c3.84,13.727-3.075,28.528-16.556,34.16l-0.182,0.075
		c-12.757,5.229-27.217,0.513-34.653-10.523l3.345,8.016c5.996,14.368-0.813,30.94-15.179,36.942l-0.179,0.074
		c-0.435,0.178-0.872,0.344-1.31,0.499l21.236,51.807c9.665,23.58,36.617,34.861,60.197,25.196l67.343-27.604
		c16.026-6.569,23.979-24.872,17.435-40.908c-1.828-4.48-3.241-9.119-4.226-13.843c-2.586-9.879-3.358-20.262-2.105-30.611
		L331.083,236.993z"/>
</g>
<path style="fill:#F7AD6B;" d="M303.923,225.389l-21.947,8.964c-2.533,1.034-5.143,1.591-7.739,1.725
	c-2.805,3.164-6.354,5.754-10.532,7.465l0,0c-14.061,5.756-30.048-0.53-36.531-14.054c4.614,14.091-2.374,29.559-16.312,35.264
	c-13.314,5.45-28.354,0.103-35.419-11.962l3.875,9.477c5.876,14.368-1.006,30.779-15.372,36.659
	c-9.425,3.858-19.214,0.965-22.993-0.526l-0.051,0.024l8.619,20.404c6.93,0.587,14.085-0.375,20.951-3.131l0.29-0.117
	c13.844-5.666,23.451-17.344,27.056-30.788c6.498,0.328,13.157-0.693,19.565-3.267l0.293-0.119
	c9.805-4.014,17.499-11.018,22.478-19.525c9.895,2.837,20.376,2.327,30.066-1.563c0.099-0.04,0.199-0.08,0.297-0.121
	c4.744-1.942,9.036-4.598,12.839-7.901c1.783-0.138,3.572-0.542,5.318-1.243c0.034-0.014,0.068-0.028,0.103-0.041l41.113-16.623
	C324.562,225.47,313.598,221.438,303.923,225.389z"/>
<path style="fill:#F4C08E;" d="M282.966,214.16l-23.673,10.007c-2.26,0.955-4.582,1.554-6.909,1.837
	c7.321,9.061,19.781,12.666,30.776,8.018l23.673-10.007c1.289-0.545,2.603-0.952,3.924-1.24L282.966,214.16z"/>
<path style="fill:#C7C5CB;" d="M478.392,175.265l-21.807-62.373c-0.316-0.905-0.721-1.777-1.206-2.603l-55.884-95.074
	C395.373,8.2,386.344,5.857,379.33,9.98l-9.265,5.446l-22.502,13.226c-7.015,4.123-9.358,13.152-5.235,20.166l4.663,7.932
	l14.24,24.227l0.639,1.088l36.342,61.826c0.486,0.827,1.051,1.604,1.688,2.32l43.89,49.394c4.673,5.259,12.413,6.48,18.478,2.915
	l9.683-5.692C478.016,189.262,480.714,181.906,478.392,175.265z"/>
<path style="fill:#AEADB3;" d="M462.267,198.519l9.683-5.692c6.065-3.565,8.763-10.922,6.441-17.563l-4.709-13.469l-38.79,23.797
	l8.896,10.011C448.463,200.863,456.202,202.084,462.267,198.519z"/>
<path style="fill:#D8D8DA;" d="M448.566,147.683l-9.551-27.32c-0.182-0.522-0.415-1.025-0.695-1.501l-48.756-82.946
	c-2.377-4.043-7.582-5.395-11.626-3.018l-9.673,5.685c-4.043,2.377-5.395,7.582-3.018,11.626l48.756,82.946
	c0.281,0.476,0.605,0.924,0.973,1.338l19.223,21.634c2.734,3.077,7.281,3.75,10.789,1.598l0,0
	C448.395,155.635,449.883,151.455,448.566,147.683z"/>
<g>
	<path style="fill:#1A1A1A;" d="M323.624,256.212c-4.355-0.527-8.309,2.575-8.835,6.928c-1.352,11.174-0.593,22.403,2.256,33.382
		c1.082,5.133,2.631,10.187,4.606,15.025c1.256,3.078,4.222,4.941,7.353,4.941c0.999,0,2.014-0.189,2.997-0.591
		c4.059-1.657,6.008-6.291,4.352-10.35c-1.636-4.011-2.916-8.204-3.804-12.464c-0.028-0.131-0.058-0.261-0.092-0.391
		c-2.382-9.099-3.022-18.401-1.903-27.647C331.079,260.695,327.978,256.739,323.624,256.212z"/>
	<path style="fill:#1A1A1A;" d="M485.886,172.644l-21.358-61.09c10.29-7.58,13.286-21.71,6.723-32.878l-3.567-6.068
		c-4.486-7.632-12.776-12.373-21.634-12.373c-3.328,0-6.644,0.687-9.717,1.98l4.599,7.826l-12.664-21.545
		c-2.223-3.78-7.089-5.043-10.868-2.821c-3.78,2.222-5.043,7.087-2.821,10.867l33.957,57.77c0.222,0.379,0.41,0.782,0.556,1.2
		l21.807,62.373c1.068,3.054-0.181,6.46-2.97,8.099l-9.683,5.692c-2.79,1.64-6.372,1.073-8.521-1.344l-43.889-49.393
		c-0.294-0.331-0.557-0.691-0.779-1.07l-55.884-95.074c-0.92-1.564-1.175-3.393-0.719-5.149c0.456-1.756,1.569-3.229,3.133-4.149
		l31.767-18.673c1.566-0.919,3.392-1.173,5.15-0.719c1.756,0.456,3.229,1.569,4.149,3.132l6.824,11.611
		c2.222,3.78,7.088,5.042,10.867,2.822c3.78-2.222,5.044-7.087,2.822-10.867l-6.824-11.611c-3.069-5.221-7.986-8.933-13.848-10.455
		c-5.863-1.522-11.965-0.669-17.185,2.4l-31.767,18.672c-5.221,3.069-8.933,7.986-10.455,13.848
		c-1.522,5.861-0.669,11.964,2.4,17.184l33.637,57.226l-4.722-8.034l-48.268,26.838l0,0c-0.284-0.375-0.571-0.748-0.868-1.111
		c-0.028-0.034-0.057-0.066-0.086-0.1c-0.474-0.574-0.969-1.127-1.477-1.67c-0.145-0.156-0.29-0.31-0.438-0.463
		c-0.518-0.533-1.046-1.057-1.596-1.558c-0.175-0.16-0.359-0.309-0.537-0.466c-0.373-0.326-0.751-0.647-1.137-0.958
		c-0.297-0.24-0.597-0.476-0.902-0.707c-0.241-0.182-0.49-0.357-0.737-0.533c-0.72-0.518-1.458-1.008-2.213-1.471
		c-0.083-0.051-0.163-0.103-0.247-0.152c-2.031-1.224-4.183-2.247-6.431-3.056c-0.055-0.02-0.11-0.038-0.165-0.057
		c-0.829-0.293-1.668-0.558-2.521-0.792c-0.364-0.102-0.727-0.201-1.093-0.291c-0.311-0.075-0.622-0.146-0.937-0.214
		c-1.618-0.351-3.251-0.59-4.89-0.717c-0.02-0.001-0.04-0.003-0.06-0.004c-3.851-0.292-7.729,0.026-11.515,0.975
		c-0.079,0.02-0.159,0.044-0.238,0.066c-0.489,0.126-0.977,0.257-1.462,0.403c-0.32,0.096-0.636,0.207-0.954,0.313
		c-0.248,0.083-0.497,0.157-0.744,0.245c-0.565,0.201-1.128,0.416-1.687,0.647c-0.641,0.264-1.269,0.547-1.887,0.844
		c-0.2,0.096-0.395,0.199-0.593,0.298c-0.415,0.209-0.828,0.42-1.232,0.643c-0.223,0.123-0.444,0.25-0.663,0.377
		c-0.373,0.215-0.741,0.436-1.104,0.663c-0.217,0.135-0.433,0.272-0.647,0.412c-0.368,0.241-0.728,0.49-1.086,0.743
		c-0.189,0.134-0.381,0.266-0.567,0.403c-0.431,0.318-0.851,0.647-1.265,0.981c-0.099,0.08-0.204,0.157-0.303,0.239
		c-0.507,0.419-1.001,0.852-1.482,1.297c-0.138,0.127-0.269,0.26-0.404,0.388c-0.341,0.324-0.677,0.651-1.003,0.988
		c-0.167,0.173-0.33,0.349-0.494,0.525c-0.286,0.306-0.566,0.615-0.84,0.929c-0.165,0.189-0.327,0.379-0.488,0.572
		c-0.267,0.32-0.527,0.644-0.782,0.972c-0.147,0.188-0.295,0.376-0.439,0.567c-0.279,0.374-0.548,0.754-0.812,1.137
		c-0.104,0.15-0.213,0.297-0.313,0.449c-0.358,0.536-0.703,1.08-1.031,1.632c-0.07,0.116-0.132,0.237-0.2,0.355
		c-0.256,0.441-0.505,0.885-0.742,1.336c-0.107,0.203-0.206,0.41-0.309,0.614c-0.188,0.375-0.373,0.752-0.547,1.133
		c-0.104,0.225-0.203,0.452-0.303,0.68c-0.163,0.375-0.32,0.753-0.47,1.133c-0.09,0.227-0.18,0.453-0.266,0.681
		c-0.153,0.411-0.296,0.826-0.435,1.242c-0.066,0.198-0.137,0.393-0.199,0.592c-0.194,0.614-0.374,1.232-0.535,1.856
		c0,0.002-0.001,0.004-0.002,0.005c-0.003-0.002-0.006-0.003-0.011-0.004c-1.429-0.742-2.908-1.39-4.432-1.939
		c-0.048-0.017-0.096-0.033-0.144-0.05c-0.829-0.294-1.668-0.558-2.52-0.793c-0.372-0.104-0.744-0.206-1.118-0.297
		c-0.304-0.073-0.609-0.143-0.916-0.209c-1.63-0.356-3.275-0.595-4.926-0.722c-0.004,0-0.01-0.001-0.014-0.001
		c-4.438-0.34-8.917,0.135-13.245,1.445c-0.211,0.064-0.418,0.139-0.628,0.206c-0.356,0.114-0.713,0.225-1.067,0.351
		c-0.564,0.201-1.126,0.416-1.683,0.645c-0.626,0.257-1.238,0.532-1.842,0.82c-0.156,0.074-0.306,0.155-0.459,0.231
		c-0.454,0.224-0.905,0.454-1.346,0.695c-0.147,0.08-0.291,0.166-0.437,0.249c-0.455,0.257-0.904,0.521-1.344,0.796
		c-0.106,0.066-0.21,0.133-0.314,0.2c-0.495,0.315-0.981,0.643-1.458,0.979c-0.041,0.03-0.084,0.059-0.125,0.089
		c-6.665,4.762-11.412,11.566-13.708,19.165c-3.442-1.936-7.217-3.297-11.184-4.035c-0.104-0.019-0.207-0.04-0.312-0.059
		c-0.555-0.098-1.112-0.186-1.675-0.258c-0.268-0.035-0.538-0.061-0.807-0.091c-0.554-0.059-1.108-0.115-1.668-0.149
		c-0.648-0.041-1.297-0.067-1.949-0.073c-0.106-0.001-0.21-0.012-0.315-0.012c-1.899,0-3.781,0.153-5.641,0.446
		c-0.089,0.014-0.177,0.032-0.266,0.046c-0.556,0.092-1.11,0.196-1.662,0.313c-0.159,0.034-0.318,0.071-0.476,0.107
		c-0.485,0.11-0.966,0.231-1.447,0.361c-0.186,0.051-0.374,0.101-0.56,0.155c-0.47,0.135-0.938,0.284-1.404,0.438
		c-0.177,0.058-0.354,0.113-0.53,0.175c-0.631,0.22-1.258,0.454-1.879,0.709c-0.771,0.316-1.518,0.666-2.256,1.029
		c-0.188,0.093-0.376,0.187-0.562,0.283c-0.703,0.361-1.394,0.736-2.063,1.137c-0.025,0.015-0.052,0.029-0.077,0.043
		c-0.689,0.415-1.354,0.857-2.007,1.311c-0.171,0.12-0.341,0.24-0.509,0.362c-0.607,0.438-1.201,0.888-1.775,1.36
		c-0.04,0.033-0.083,0.064-0.124,0.097c-0.603,0.5-1.182,1.023-1.748,1.557c-0.151,0.143-0.301,0.288-0.45,0.433
		c-0.512,0.501-1.013,1.012-1.492,1.54c-0.049,0.054-0.101,0.105-0.149,0.159c-0.514,0.573-1.003,1.165-1.48,1.768
		c-0.128,0.163-0.254,0.326-0.38,0.491c-0.422,0.554-0.831,1.117-1.22,1.691c-0.049,0.072-0.101,0.141-0.148,0.213
		c-0.422,0.635-0.819,1.286-1.201,1.944c-0.104,0.178-0.203,0.358-0.304,0.537c-0.332,0.596-0.65,1.2-0.948,1.813
		c-0.042,0.088-0.09,0.174-0.132,0.263c-0.327,0.687-0.627,1.386-0.911,2.091c-0.075,0.187-0.147,0.375-0.219,0.563
		c-0.243,0.634-0.471,1.273-0.68,1.92c-0.032,0.098-0.068,0.195-0.098,0.294c-0.228,0.728-0.427,1.465-0.609,2.208
		c-0.047,0.191-0.09,0.383-0.133,0.575c-0.151,0.663-0.286,1.329-0.4,2.001c-0.018,0.107-0.041,0.213-0.058,0.32
		c-0.122,0.759-0.215,1.523-0.289,2.291c-0.018,0.192-0.033,0.383-0.049,0.575c-0.055,0.682-0.093,1.367-0.109,2.053
		c-0.001,0.061-0.008,0.121-0.01,0.182c-3.362-1.024-6.912-1.568-10.562-1.568c-3.111,0-6.177,0.408-9.166,1.199
		c-0.032,0.008-0.062,0.018-0.094,0.025c-0.462,0.124-0.922,0.253-1.38,0.395c-0.179,0.055-0.356,0.117-0.533,0.176
		c-0.328,0.107-0.656,0.212-0.981,0.328c-0.519,0.185-1.036,0.383-1.55,0.595c-18.379,7.559-27.187,28.663-19.633,47.044
		l18.257,44.434c0.365,0.889,0.766,1.755,1.194,2.602c0.101,0.198,0.216,0.387,0.32,0.583c0.345,0.652,0.699,1.297,1.08,1.922
		c0.115,0.188,0.241,0.368,0.36,0.555c0.398,0.627,0.807,1.244,1.24,1.841c0.112,0.155,0.231,0.303,0.345,0.454
		c0.466,0.622,0.947,1.23,1.45,1.817c0.098,0.114,0.2,0.227,0.301,0.34c0.545,0.621,1.109,1.223,1.694,1.803
		c0.072,0.072,0.145,0.142,0.218,0.213c0.415,0.405,0.832,0.808,1.266,1.192L69.621,338c-0.041,0.025-0.083,0.052-0.123,0.078
		c-1.495,0.965-3.215,1.476-4.975,1.476c-3.308,0-6.28-1.698-7.951-4.541l-14.563-24.776c-1.283-2.183-1.611-4.726-0.923-7.163
		s2.297-4.433,4.533-5.624c0.042-0.022,0.086-0.046,0.127-0.069l63.744-35.444l-6.076-14.788l-65.328,36.324
		c-6.054,3.246-10.412,8.673-12.281,15.287c-1.875,6.64-0.981,13.574,2.515,19.522l14.563,24.776
		c4.487,7.632,12.778,12.373,21.64,12.373c4.797,0,9.47-1.373,13.521-3.971l60.734-37.684l-3.774-8.891l0,0l23.732,55.918
		c5.546,13.309,14.659,24.699,26.356,32.942c0.217,0.152,0.44,0.293,0.67,0.423l52.701,29.75l3.194,18.462
		c0.747,4.321,4.852,7.217,9.175,6.47c4.32-0.747,7.217-4.854,6.47-9.175l-3.835-22.172c-0.405-2.348-1.845-4.39-3.92-5.56
		l-55.622-31.4c-9.095-6.497-16.19-15.428-20.553-25.895l-19.001-44.772c4.36-0.121,8.628-1.019,12.699-2.694
		c13.809-5.68,22.214-19.008,22.334-33.081c3.394,1.03,6.976,1.578,10.658,1.578c4.764,0,9.429-0.925,13.865-2.75
		c10.542-4.336,17.967-13.079,21.031-23.226c5.344,3.005,11.474,4.676,17.91,4.676c4.763,0,9.428-0.925,13.865-2.75
		c4.199-1.727,7.946-4.166,11.19-7.248c2.376-0.376,4.743-1.019,7.058-1.97l21.931-9.002c3.123-1.282,6.591-1.249,9.768,0.089
		c3.381,1.426,6.017,4.126,7.418,7.603c1.248,3.093,4.222,4.972,7.365,4.972c0.989,0,1.994-0.186,2.967-0.578
		c4.067-1.64,6.033-6.265,4.393-10.332c-2.996-7.428-8.669-13.214-15.975-16.295c-7.102-2.993-14.903-3.046-21.964-0.148
		l-21.932,9.003c-2.03,0.834-4.141,1.202-6.223,1.17c-0.058-0.001-0.116,0.004-0.175,0.002c-5.272-0.143-10.341-2.912-13.451-7.522
		c-0.068-0.102-0.134-0.204-0.201-0.308c-0.218-0.338-0.423-0.687-0.619-1.043c-0.069-0.125-0.141-0.248-0.206-0.375
		c-0.242-0.467-0.472-0.945-0.676-1.442l-3.326-8.094c-1.777-4.325-1.781-9.036-0.013-13.266c1.67-3.994,4.752-7.079,8.678-8.687
		l38.41-15.734l21.909-8.974c0,0,0.001-0.001,0.002-0.001l1.617-0.663c6.647-2.724,13.97-2.834,20.774-0.346
		c0.46,0.168,0.918,0.348,1.373,0.54c1.887,0.796,3.67,1.77,5.331,2.902c4.983,3.398,8.872,8.229,11.211,14.027l16.332,40.49
		c0,0.001,0.001,0.001,0.001,0.002c2.765,6.856,3.806,14.335,3.015,21.629l-9.19,84.608c-0.062,0.569-0.062,1.144,0,1.714
		l3.703,34.127c0.132,1.223,0.548,2.399,1.213,3.434l76.319,118.829c2.138,3.328,0.9,6.376,0.268,7.533
		c-0.632,1.157-2.528,3.846-6.483,3.846H273.282c-3.604,0-6.665-2.577-7.279-6.129l-3.624-20.955
		c-0.747-4.32-4.852-7.213-9.175-6.47c-4.321,0.747-7.217,4.855-6.47,9.175l3.624,20.954c1.934,11.183,11.575,19.301,22.924,19.301
		h175.263c8.512,0,16.337-4.642,20.417-12.112c4.081-7.471,3.758-16.561-0.843-23.725l-75.308-117.255l-3.407-31.411l9.097-83.751
		c1.074-9.885-0.335-20.012-4.075-29.286l-16.332-40.49c-0.936-2.321-2.045-4.536-3.3-6.639l21.434-13.299l-2.263-2.547
		l43.89,49.394c4.421,4.975,10.66,7.6,16.978,7.599c3.929,0,7.889-1.016,11.458-3.113l9.683-5.692
		C485.28,194.201,489.448,182.834,485.886,172.644z M444.578,76.245c0.484-0.078,0.972-0.133,1.47-0.133
		c3.255,0,6.299,1.74,7.946,4.542l3.567,6.068c1.983,3.373,1.582,7.478-0.725,10.379L444.578,76.245z M318.642,132.66
		c0.067,0.115,0.131,0.233,0.197,0.349C318.773,132.893,318.708,132.777,318.642,132.66z M319.746,134.723
		c0.057,0.116,0.114,0.233,0.17,0.349c-0.041-0.086-0.086-0.169-0.127-0.255C319.773,134.787,319.761,134.754,319.746,134.723z
		 M271.564,167.384l-3.544-8.624c-0.54-1.313-0.933-2.649-1.188-3.993c-1.784-9.403,3.218-19.107,12.406-22.887
		c0.633-0.26,1.274-0.488,1.922-0.683c0.166-0.05,0.337-0.08,0.505-0.126c0.481-0.132,0.962-0.264,1.448-0.36
		c0.379-0.075,0.762-0.116,1.144-0.169c0.274-0.038,0.547-0.093,0.821-0.121c0.657-0.065,1.32-0.097,1.985-0.097
		c0.152,0,0.302,0.014,0.453,0.017c0.459,0.01,0.92,0.031,1.378,0.072c0.199,0.018,0.397,0.043,0.595,0.067
		c0.464,0.055,0.927,0.123,1.389,0.211c0.125,0.023,0.25,0.044,0.375,0.071c1.272,0.267,2.53,0.649,3.756,1.16
		c1.863,0.778,3.57,1.809,5.094,3.048c0.086,0.07,0.17,0.143,0.255,0.215c0.388,0.327,0.762,0.67,1.125,1.025
		c0.103,0.101,0.207,0.198,0.307,0.3c0.423,0.433,0.832,0.881,1.216,1.35c0.05,0.06,0.093,0.126,0.142,0.186
		c0.327,0.409,0.637,0.832,0.933,1.267c0.111,0.164,0.218,0.332,0.325,0.501c0.233,0.364,0.454,0.738,0.665,1.118
		c0.092,0.166,0.186,0.33,0.274,0.5c0.282,0.544,0.548,1.098,0.784,1.671l3.561,8.665l-23.134,9.476L271.564,167.384z
		 M161.031,292.495c-2.459,1.012-5.037,1.524-7.664,1.524c-3.045,0-5.968-0.677-8.6-1.914c-0.044-0.022-0.082-0.054-0.126-0.075
		c-2.791-1.336-5.205-3.279-7.092-5.66c-0.058-0.073-0.113-0.149-0.17-0.223c-0.288-0.374-0.561-0.759-0.822-1.153
		c-0.085-0.127-0.168-0.255-0.25-0.384c-0.231-0.366-0.447-0.742-0.655-1.123c-0.074-0.138-0.153-0.271-0.225-0.411
		c-0.264-0.512-0.511-1.034-0.731-1.571l-18.257-44.434c-4.227-10.285,0.703-22.095,10.987-26.326
		c0.584-0.24,1.177-0.449,1.774-0.632c0.483-0.147,0.97-0.266,1.458-0.375c0.103-0.023,0.203-0.055,0.306-0.076
		c0.581-0.121,1.163-0.215,1.748-0.283c0.006-0.001,0.013-0.002,0.02-0.003c6.543-0.756,13.168,1.752,17.545,6.737
		c0.021,0.024,0.043,0.048,0.064,0.072c0.383,0.44,0.749,0.9,1.096,1.378c0.006,0.008,0.013,0.016,0.018,0.024
		c0.274,0.379,0.524,0.78,0.774,1.182l14.088,34.285c0.572,1.392,1.241,2.719,1.962,4.006l3.742,9.107
		C176.243,276.456,171.315,288.265,161.031,292.495z M207.888,258.243c-2.511,1.032-5.143,1.556-7.826,1.556
		c-7.229,0-13.774-3.727-17.492-9.719l-14.125-34.377c-0.569-1.386-1.236-2.708-1.956-3.989l-3.426-8.34
		c-0.54-1.313-0.933-2.649-1.188-3.993c-0.255-1.343-0.372-2.693-0.357-4.03c0.087-8.025,4.887-15.617,12.762-18.857
		c2.517-1.036,5.13-1.536,7.706-1.55h0.001c1.279-0.006,2.548,0.107,3.793,0.333c0.021,0.004,0.042,0.008,0.065,0.012
		c4.357,0.807,8.403,3.005,11.454,6.332c0.036,0.04,0.071,0.082,0.107,0.121c0.372,0.412,0.726,0.843,1.066,1.288
		c0.064,0.083,0.127,0.165,0.189,0.249c0.683,0.923,1.288,1.92,1.821,2.977c0.217,0.62,0.449,1.238,0.702,1.853l17.934,43.647
		c0.173,0.421,0.375,0.822,0.562,1.234C222.875,243.083,217.85,254.145,207.888,258.243z M239.416,190.717
		c-3.406,8.146-3.416,17.176-0.025,25.426l3.327,8.094c0.267,0.648,0.557,1.279,0.858,1.9c0.094,0.194,0.192,0.384,0.289,0.576
		c0.223,0.438,0.455,0.87,0.695,1.295c0.113,0.201,0.222,0.403,0.34,0.601c0.31,0.523,0.631,1.035,0.965,1.535
		c0.203,0.306,0.418,0.6,0.631,0.898c0.145,0.201,0.289,0.403,0.437,0.6c0.269,0.36,0.543,0.713,0.826,1.061
		c0.013,0.015,0.025,0.03,0.038,0.046c1.77,2.167,3.78,4.096,6.001,5.729c-0.309,0.014-0.617,0.021-0.926,0.021
		c-7.817,0-14.841-4.355-18.346-11.224c-0.225-0.652-0.467-1.302-0.731-1.948l-17.934-43.647c-0.171-0.417-0.372-0.816-0.557-1.224
		c-0.13-0.409-0.237-0.819-0.34-1.231c-0.06-0.241-0.125-0.483-0.176-0.725c-0.087-0.408-0.152-0.815-0.213-1.224
		c-0.037-0.247-0.075-0.493-0.103-0.74c-0.046-0.413-0.074-0.826-0.095-1.238c-0.012-0.236-0.023-0.472-0.028-0.708
		c-0.006-0.428,0.003-0.853,0.023-1.279c0.01-0.213,0.021-0.424,0.038-0.637c0.035-0.447,0.086-0.891,0.149-1.333
		c0.026-0.182,0.055-0.364,0.086-0.545c0.08-0.466,0.175-0.928,0.287-1.386c0.036-0.148,0.075-0.295,0.114-0.444
		c0.129-0.482,0.272-0.96,0.435-1.43c0.04-0.116,0.084-0.231,0.125-0.346c0.18-0.491,0.375-0.976,0.591-1.452
		c0.041-0.09,0.086-0.179,0.127-0.269c0.231-0.489,0.477-0.972,0.745-1.442c0.042-0.074,0.088-0.145,0.13-0.219
		c0.278-0.475,0.574-0.942,0.889-1.394c0.048-0.068,0.099-0.133,0.147-0.201c0.321-0.448,0.656-0.885,1.013-1.307
		c0.064-0.074,0.131-0.145,0.196-0.219c0.352-0.404,0.716-0.8,1.1-1.177c0.096-0.094,0.2-0.18,0.297-0.272
		c0.366-0.346,0.74-0.686,1.134-1.007c0.155-0.125,0.32-0.237,0.477-0.358c0.356-0.272,0.711-0.545,1.088-0.795
		c0.264-0.175,0.544-0.328,0.816-0.492c0.294-0.177,0.58-0.363,0.886-0.525c0.595-0.316,1.209-0.609,1.844-0.87
		c0.633-0.26,1.273-0.487,1.92-0.683c0.211-0.064,0.426-0.103,0.637-0.16c0.437-0.116,0.873-0.239,1.314-0.326
		c0.445-0.088,0.895-0.142,1.344-0.199c0.207-0.026,0.413-0.07,0.62-0.091c0.659-0.065,1.322-0.097,1.989-0.097
		c0.161,0,0.319,0.014,0.478,0.018c0.449,0.011,0.899,0.03,1.346,0.07c0.204,0.018,0.406,0.044,0.61,0.069
		c0.458,0.055,0.916,0.122,1.372,0.207c0.129,0.024,0.258,0.047,0.386,0.073c1.271,0.267,2.528,0.649,3.752,1.16
		c1.862,0.777,3.569,1.808,5.091,3.047c0.088,0.072,0.174,0.146,0.26,0.219c0.386,0.325,0.758,0.667,1.119,1.019
		c0.104,0.102,0.211,0.201,0.312,0.305c0.422,0.432,0.83,0.879,1.213,1.346c0.051,0.062,0.096,0.13,0.147,0.193
		c0.325,0.406,0.634,0.828,0.927,1.26c0.112,0.165,0.219,0.336,0.327,0.504c0.232,0.364,0.453,0.736,0.664,1.116
		c0.092,0.166,0.186,0.331,0.274,0.501c0.282,0.544,0.548,1.098,0.784,1.671l2.874,6.995l-0.129,0.053
		C248.869,176.681,242.723,182.809,239.416,190.717z M353.002,148.352c-0.64-0.27-1.285-0.521-1.932-0.761
		c-0.213-0.078-0.427-0.15-0.639-0.225c-0.437-0.155-0.875-0.305-1.316-0.446c-0.251-0.08-0.503-0.157-0.755-0.233
		c-0.413-0.124-0.826-0.242-1.241-0.354c-0.256-0.069-0.511-0.139-0.768-0.203c-0.44-0.111-0.883-0.212-1.325-0.309
		c-0.223-0.049-0.447-0.103-0.67-0.149c-0.647-0.132-1.296-0.251-1.946-0.355c-0.183-0.029-0.366-0.05-0.549-0.076
		c-0.482-0.07-0.964-0.137-1.447-0.191c-0.27-0.031-0.54-0.053-0.81-0.078c-0.401-0.038-0.802-0.072-1.204-0.098
		c-0.286-0.019-0.572-0.035-0.858-0.049c-0.396-0.019-0.791-0.031-1.187-0.038c-0.278-0.005-0.558-0.013-0.836-0.013
		c-0.445,0-0.888,0.01-1.333,0.023c-0.224,0.006-0.45,0.007-0.674,0.017c-0.647,0.029-1.292,0.072-1.937,0.129
		c-0.229,0.02-0.457,0.05-0.686,0.074c-0.44,0.047-0.881,0.095-1.32,0.155c-0.268,0.036-0.535,0.078-0.801,0.12
		c-0.408,0.062-0.814,0.13-1.22,0.204c-0.265,0.049-0.528,0.098-0.792,0.151c-0.43,0.087-0.86,0.182-1.287,0.282
		c-0.23,0.053-0.459,0.104-0.688,0.161c-0.079,0.02-0.16,0.036-0.239,0.056l-1.266-3.081l49.171-27.34l14.806,25.19L364.3,155.157
		C360.914,152.392,357.127,150.093,353.002,148.352z M367.423,157.954c-0.085-0.083-0.169-0.165-0.255-0.248
		C367.252,157.789,367.338,157.872,367.423,157.954z M365.899,156.524c-0.066-0.059-0.132-0.116-0.199-0.175
		C365.765,156.408,365.833,156.465,365.899,156.524z M370.017,160.714c0.056,0.065,0.11,0.131,0.166,0.197
		C370.127,160.845,370.073,160.778,370.017,160.714z M368.614,159.165c0.084,0.089,0.166,0.179,0.25,0.268
		C368.781,159.344,368.698,159.254,368.614,159.165z"/>
</g>
</svg>